<?xml version="1.0" encoding="UTF-8"?>
<svg id="Layer_1" data-name="Layer 1" xmlns="http://www.w3.org/2000/svg" viewBox="0 0 2048 2048">
  <defs>
    <style>
      .cls-1 {
        fill: #657694;
        stroke-width: 0px;
      }
    </style>
  </defs>
  <path id="Light_Blue" data-name="Light Blue" class="cls-1" d="M1480.56,1148.47c-10.11-2.48-99.56-66.39-177.69-123.6l135.85-4.97c20.18-.74,40.23,3.12,57.58,11.26,23.45,10.99,47.86,24.15,68.64,33.67,81.49,37.31,166.88,69.15,250.32,103.69,0,0-2.36-365.96-2.36-365.96-7.19,2.97-99.38,39.94-109.52,44.03-38.98,15.74-77.35,32.4-116.33,48.12-31,12.5-60.52,27.11-91.2,40.05-17.62,7.43-37.59,10.71-57.53,9.59l-134.91-7.63c75.86-55.42,158.99-114.64,168.71-117.03,24.08-5.92,50.26-10.77,71.45-16.19,83.11-21.26,165.52-49.07,248.27-73.64,0,0-237.56-278.38-237.56-278.39-2.12,4.17-46.29,91.25-51,100.57-18.11,35.85-35.18,72.03-53.31,107.86-14.42,28.5-26.4,57.7-40.29,86.34-3.79,7.8-64.31,57.12-128.48,108-3.38-67.75-6.76-135.5-10.14-203.25-2.18-43.64-4.35-87.28-6.53-130.92-.79-15.86,3.02-31.62,11.11-45.29,10.93-18.46,24.03-37.69,33.49-54.05,37.1-64.16,68.72-131.36,103.05-197.05,0,0-365.95,3.06-365.95,3.06,4.03-.82,40.2,77.96,44.32,85.92,15.84,30.58,32.6,60.68,48.42,91.26,12.58,24.32,27.26,47.47,40.29,71.54,7.48,13.82,10.81,29.5,9.73,45.18-1.61,23.44-3.22,46.87-4.83,70.31-3.82,55.61-7.64,111.23-11.47,166.84-3.91,56.95-7.83,113.9-11.74,170.85l-228.79-12.95v-242.17c-10.52-103.6-56.48-173.02-129.05-208.91-5.23-2.66-10.61-5.12-16.13-7.41-34.69-14.4-74.87-21.55-119.65-21.55-162.48,0-261.19,94.15-261.19,285.49v811.12h164s-1.31-290.12-1.31-290.12c-.28-63.49.54-126.96.54-190.42,0,0,195.62-7.16,195.62-7.16v9.9s.09,47.54.09,47.54l-.69.02v149.41c0,2.53.02,5.06.06,7.56.07,5.29.22,10.5.47,15.62.84,18.84,2.76,36.66,5.68,53.42,0,.08.02.17.04.24,1.65,9.45,3.62,18.56,5.91,27.34,20.53,78.81,66.49,131.28,133.08,158.24,35.55,14.42,76.97,21.55,123.53,21.55,114.74,0,219.54-52.78,254.07-168.18,24.25-81.02,11.52-166.67,7.13-249.59,62.4,49.53,120.08,96.65,123.77,104.27,13.89,28.64,25.88,57.85,40.29,86.34,18.13,35.83,35.2,72.01,53.31,107.86,4.71,9.32,47.29,93.44,51,100.57,0,0,237.56-278.39,237.56-278.39-82.74-24.56-165.15-52.38-248.27-73.64-21.19-5.42-47.37-10.27-71.45-16.19ZM1606.21,972.46l53.77-23.54,82.59-36.17-1.8,147.12-81.68-37.4-54.78-25.08-26.9-12.31,28.8-12.62ZM1513.96,707.65l23.8-50.85,36.56-78.11,93.51,113.59-83.3,21.3-55.87,14.28-27.44,7.02,12.74-27.24ZM1156.58,281.66l147.12.93-37.18,64.31-24.94,43.12-12.25,21.18-12.69-22.59-23.68-42.18-36.38-64.78ZM569.9,773.59l.13-45.55.09-31.18c0-36.81,12.08-65.91,33.21-84.29,16.35-14.21,38.16-22.01,63.98-22.01.71,0,1.42,0,2.14.02,3.9.06,7.71.28,11.4.67,33.58,3.47,58.36,20.14,72.27,46.79.67,1.31,1.35,2.72,1.97,4.22,4.43,10.5,7.54,25.15,9.28,36.83l.08,44.18.26,160.61v1.58l.03,20.79-195.18-11.05.07-26,.26-95.6ZM1131.06,1290.51c-5.59,34.33-22.51,70.66-56.05,85.22-13.15,5.71-27.61,7.82-41.87,7.82-44.53,0-75.31-18.38-90.35-50.82-3.77-8.04-6.53-16.97-8.31-26.68-1.56-8.49-2.34-17.61-2.34-27.28v-240.31l221.8-8.12c-2.01,29.3-4.03,58.59-6.04,87.89-3.95,57.54-7.56,115.31-16.84,172.29ZM1676.26,1275.88l-93.51,113.59-36.56-78.11-23.8-50.85-12.74-27.24,27.44,7.02,55.87,14.28,83.3,21.3Z"/>
</svg>